<svg width="40" height="40" viewBox="0 0 40 40" fill="none" xmlns="http://www.w3.org/2000/svg">
<g id="Bitcoin (BTC)">
<path id="Bitcoin (BTC)_2" d="M39.4015 24.7728C36.7304 35.2193 25.8784 41.5769 15.1628 38.9719C4.45162 36.3675 -2.06895 25.7862 0.603365 15.3405C3.27334 4.89284 14.1253 -1.4652 24.8376 1.13917C35.5525 3.74354 42.0727 14.326 39.4012 24.773L39.4014 24.7728H39.4015Z" fill="#FB923C"/>
<path id="Bitcoin (BTC)_3" fillRule="evenodd" clipRule="evenodd" d="M28.8212 17.2773C29.2192 14.6823 27.1929 13.2874 24.422 12.3568L25.3209 8.84165L23.1263 8.30846L22.2512 11.7311C21.6743 11.5908 21.0818 11.4586 20.4929 11.3275L21.3742 7.88231L19.1809 7.34912L18.2816 10.8632C17.8041 10.7572 17.3352 10.6524 16.8802 10.5421L16.8827 10.531L13.8562 9.79412L13.2724 12.0796C13.2724 12.0796 14.9007 12.4435 14.8664 12.4659C15.7551 12.6821 15.9158 13.2557 15.8891 13.7104L14.8652 17.715C14.9264 17.7302 15.0058 17.7521 15.0934 17.7864L15.0297 17.7709C14.9755 17.7577 14.9192 17.744 14.8614 17.7305L13.4262 23.3404C13.3176 23.6036 13.0419 23.9987 12.4206 23.8487C12.4426 23.8798 10.8255 23.4606 10.8255 23.4606L9.73584 25.9099L12.5918 26.6041C12.9046 26.6806 13.2137 26.7591 13.5196 26.8369C13.7334 26.8912 13.9457 26.9452 14.1566 26.9978L13.2484 30.5533L15.4405 31.0865L16.3399 27.5687C16.9388 27.7272 17.5199 27.8734 18.0889 28.0112L17.1925 31.5124L19.3873 32.0456L20.2954 28.4968C24.0378 29.1873 26.8517 28.9089 28.0362 25.6086C28.9906 22.9514 27.9887 21.4187 26.0198 20.4193C27.4538 20.0968 28.534 19.1772 28.822 17.2776L28.8213 17.2771L28.8212 17.2773ZM17.4801 25.1018L17.4801 25.1018C17.319 25.0603 17.1751 25.0233 17.0523 24.9935L18.2575 20.2831C18.4071 20.3195 18.5899 20.3595 18.7971 20.4049L18.7971 20.4049C20.6494 20.8102 24.4444 21.6405 23.8069 24.1329H23.8068C23.1846 26.5708 19.2708 25.5629 17.4801 25.1018ZM19.1687 18.2187C20.6616 18.6071 23.9184 19.4546 24.4856 17.2389H24.4858C25.0649 14.9727 21.8999 14.2895 20.3541 13.9558C20.1802 13.9183 20.0268 13.8852 19.9015 13.8547L18.8088 18.1268C18.912 18.1519 19.0331 18.1834 19.1687 18.2187Z" fill="white"/>
</g>
</svg>
