<svg width="42" height="24" viewBox="0 0 42 24" fill="none" xmlns="http://www.w3.org/2000/svg">
<g id="Frame 427320395">
<path d="M0 12C0 5.37258 5.37258 0 12 0H30C36.6274 0 42 5.37258 42 12C42 18.6274 36.6274 24 30 24H12C5.37258 24 0 18.6274 0 12Z" fill="white"/>
<path id="Combined Shape" fillRule="evenodd" clipRule="evenodd" d="M9.49509 9C7.86517 9 6.54102 10.3459 6.54102 11.9975C6.54102 13.6516 7.86517 15 9.49509 15C11.125 15 12.4492 13.6516 12.4492 11.9975C12.4492 10.3459 11.125 9 9.49509 9ZM20.538 9C18.9081 9 17.5839 10.3459 17.5839 11.9975C17.5839 13.6516 18.9081 15 20.538 15C22.1679 15 23.4921 13.6516 23.4921 11.9975C23.4921 10.3459 22.1679 9 20.538 9ZM28.6328 11.9975C28.6328 10.3459 29.957 9 31.5869 9C33.2168 9 34.541 10.3459 34.541 11.9975C34.541 13.6516 33.2168 15 31.5869 15C29.957 15 28.6328 13.6516 28.6328 11.9975Z" fill="#2563EB"/>
</g>
</svg>
