<svg width="24" height="25" viewBox="0 0 24 25" fill="none" xmlns="http://www.w3.org/2000/svg">
<g id="gas-station-fill">
<path id="Vector" d="M3 19.3334V4.33337C3 3.78109 3.44772 3.33337 4 3.33337H13C13.5523 3.33337 14 3.78109 14 4.33337V12.3334H16C17.1046 12.3334 18 13.2288 18 14.3334V18.3334C18 18.8857 18.4477 19.3334 19 19.3334C19.5523 19.3334 20 18.8857 20 18.3334V11.3334H18C17.4477 11.3334 17 10.8857 17 10.3334V6.74758L15.3431 5.09073L16.7574 3.67652L21.7071 8.62626C21.9024 8.82153 22 9.07745 22 9.33337V18.3334C22 19.9903 20.6569 21.3334 19 21.3334C17.3431 21.3334 16 19.9903 16 18.3334V14.3334H14V19.3334H15V21.3334H2V19.3334H3ZM5 5.33337V11.3334H12V5.33337H5Z" fill="#475568"/>
</g>
</svg>
