<svg width="170" height="170" viewBox="0 0 170 170" fill="none" xmlns="http://www.w3.org/2000/svg">
<path id="Subtract" fillRule="evenodd" clipRule="evenodd" d="M85 170C132.104 170 170 132.104 170 85C170 37.8956 132.104 0 85 0C37.8956 0 0 37.8956 0 85C0 132.104 37.8956 170 85 170ZM66.9385 135.647C39.3135 125.73 25.1466 94.918 35.418 67.6466C40.7305 52.7716 52.418 41.4385 66.9385 36.126C68.3555 35.418 69.0635 34.3555 69.0635 32.5841V27.626C69.0635 26.2091 68.3555 25.1466 66.9385 24.793C66.5841 24.793 65.876 24.793 65.5216 25.1466C31.876 35.7716 13.4591 71.543 24.0841 105.189C30.4591 125.022 45.6885 140.251 65.5216 146.626C66.9385 147.334 68.3555 146.626 68.7091 145.209C69.0635 144.855 69.0635 144.501 69.0635 143.793V138.834C69.0635 137.772 68.001 136.355 66.9385 135.647ZM104.48 25.1466C103.064 24.4385 101.647 25.1466 101.293 26.5635C100.939 26.918 100.939 27.2716 100.939 27.9805V32.9385C100.939 34.3555 102.001 35.7716 103.064 36.4805C130.689 46.3966 144.855 77.2091 134.584 104.48C129.272 119.355 117.584 130.689 103.064 136.001C101.647 136.709 100.939 137.772 100.939 139.543V144.501C100.939 145.918 101.647 146.98 103.064 147.334C103.418 147.334 104.126 147.334 104.48 146.98C138.126 136.355 156.543 100.584 145.918 66.9385C139.543 46.751 123.959 31.5216 104.48 25.1466ZM86.0596 80.0429C100.935 81.8134 108.372 86.0634 108.372 98.459C108.372 108.021 101.289 115.459 90.6641 117.23V125.73C90.3096 127.501 89.2471 128.563 87.8302 128.563H82.5177C80.7471 128.209 79.6846 127.146 79.6846 125.73V117.23C67.9971 115.459 62.3302 109.084 60.9141 100.23V99.8759C60.9141 98.459 61.9766 97.3965 63.3927 97.3965H69.4141C70.4766 97.3965 71.5391 98.1054 71.8927 99.5215C72.9552 104.834 76.1427 108.73 85.3516 108.73C92.0802 108.73 97.0391 104.835 97.0391 99.1679C97.0391 93.5009 93.8516 91.3759 83.9346 89.6054C69.0596 87.834 61.9766 83.2304 61.9766 71.5429C61.9766 62.6884 68.7052 55.6054 79.3302 54.1884V46.0429C79.6846 44.2715 80.7471 43.209 82.1641 43.209H87.4766C89.2471 43.5634 90.3096 44.6259 90.3096 46.0429V54.5429C98.4552 55.2509 104.83 61.2715 106.247 69.0634V69.4179C106.247 70.834 105.185 71.8965 103.768 71.8965H98.1016C97.0391 71.8965 95.9766 71.1884 95.6221 70.1259C93.8516 64.8134 90.3096 62.6884 83.9346 62.6884C76.8516 62.6884 73.3096 65.8751 73.3096 70.834C73.3096 75.7929 75.4346 78.6259 86.0596 80.0429Z" fill="white" fill-opacity="0.1"/>
</svg>
