<svg width="40" height="40" viewBox="0 0 40 40" fill="none" xmlns="http://www.w3.org/2000/svg">
<g id="Group 8">
<rect id="Rectangle 1" width="40" height="40" rx="20" fill="#1E40AF"/>
<g id="Group 1">
<g id="Group 162756">
<g id="Group 162757">
<path id="Union" fillRule="evenodd" clipRule="evenodd" d="M28.6292 16.4883L28.7303 16.789H31.8853L31.7812 16.2507C31.6016 15.3221 31.2733 14.4724 30.795 13.7058C30.3193 12.9375 29.7244 12.2781 29.0125 11.7293C28.3062 11.1743 27.5038 10.7498 26.6092 10.4536C25.7156 10.1499 24.7572 10 23.737 10C22.4949 10 21.3462 10.2239 20.2964 10.678C19.2488 11.1312 18.3389 11.7847 17.5706 12.637C16.8007 13.4912 16.2091 14.5211 15.7919 15.7188L15.7915 15.7202C15.3788 16.9172 15.1763 18.2543 15.1763 19.7255C15.1763 21.6865 15.5314 23.4065 16.259 24.8702L16.2597 24.8716C16.9912 26.3303 18.0147 27.4643 19.3284 28.2614C20.649 29.0588 22.172 29.451 23.8822 29.451C25.415 29.451 26.7907 29.139 27.9971 28.5029C29.2083 27.8615 30.1641 26.9533 30.8545 25.7811C31.5557 24.6007 31.8986 23.2231 31.8986 21.6654V19.2761H25.4419V22.1148H28.8344C28.7672 22.9012 28.5625 23.5869 28.2287 24.1802C27.8169 24.9165 27.2418 25.4878 26.4953 25.8963C25.7557 26.2985 24.8887 26.5065 23.8822 26.5065C22.802 26.5065 21.8429 26.2477 20.9943 25.7377C20.1527 25.2319 19.4787 24.4842 18.9745 23.4767C18.4762 22.481 18.2159 21.237 18.2159 19.7255C18.2159 18.2133 18.4734 16.9687 18.9663 15.9725C19.4656 14.9636 20.1286 14.2163 20.9522 13.7114C21.7837 13.2016 22.7087 12.9445 23.737 12.9445C24.3723 12.9445 24.9469 13.0279 25.4639 13.19C25.9835 13.3529 26.4411 13.587 26.8406 13.8902L26.8429 13.8919C27.2507 14.1971 27.6006 14.5665 27.8938 15.0019L27.8975 15.0072C28.1977 15.4395 28.4422 15.9322 28.6292 16.4883Z" fill="#F0B90B"/>
<path id="Union_2" fillRule="evenodd" clipRule="evenodd" d="M10.2606 16.789H7.14344L7.24071 16.2556C7.41937 15.2758 7.74673 14.3949 8.22708 13.6188C8.70304 12.8439 9.29597 12.186 10.0043 11.6476C10.7104 11.1051 11.5012 10.6952 12.3736 10.4166C13.2408 10.1378 14.1639 10 15.1406 10C16.7934 10 18.2794 10.3932 19.5864 11.1901C20.8931 11.9869 21.9187 13.1199 22.6619 14.5766C23.4091 16.0413 23.774 17.7628 23.774 19.7255C23.774 21.6882 23.4091 23.4097 22.6619 24.8744C21.9187 26.3311 20.8931 27.4641 19.5864 28.2609C18.2794 29.0579 16.7934 29.451 15.1406 29.451C14.1638 29.451 13.2406 29.3132 12.3734 29.0343C11.5016 28.756 10.7112 28.3493 10.0053 27.8129L10.0034 27.8115C9.29538 27.2673 8.70259 26.6066 8.22665 25.8316C7.74702 25.0505 7.41959 24.1702 7.2408 23.1959L7.14282 22.662H10.2599L10.335 23.0138C10.4563 23.582 10.6666 24.0776 10.9628 24.5066L10.9635 24.5077C11.2595 24.9392 11.6209 25.304 12.0499 25.6034C12.4756 25.8988 12.9506 26.1235 13.4775 26.276C14.0069 26.4292 14.5608 26.5065 15.1406 26.5065C16.1947 26.5065 17.1384 26.2486 17.9816 25.7386C18.8109 25.2334 19.4795 24.486 19.9843 23.4776C20.477 22.4816 20.7344 21.2373 20.7344 19.7255C20.7344 18.2138 20.477 16.9695 19.9844 15.9735C19.4795 14.9651 18.8109 14.2176 17.9815 13.7124C17.1383 13.2024 16.1947 12.9445 15.1406 12.9445C14.5608 12.9445 14.0069 13.0218 13.4775 13.175C12.9517 13.3272 12.4777 13.5542 12.0525 13.8547L12.0473 13.8583C11.6196 14.1513 11.2591 14.5125 10.9635 14.9434L10.9613 14.9465C10.6668 15.368 10.4566 15.8623 10.3352 16.4364L10.2606 16.789Z" fill="white"/>
<path id="Union_3" fillRule="evenodd" clipRule="evenodd" d="M28.6292 16.4883L28.7303 16.789H31.8853L31.7812 16.2507C31.6016 15.3219 31.2732 14.4721 30.7948 13.7054C30.3191 12.9372 29.7242 12.278 29.0124 11.7293C28.3061 11.1743 27.5038 10.7498 26.6092 10.4536C25.7156 10.1499 24.7572 10 23.737 10C22.4949 10 21.3462 10.2239 20.2964 10.678C19.2488 11.1312 18.3389 11.7847 17.5706 12.637C16.8007 13.4912 16.2091 14.5211 15.7919 15.7188L15.7915 15.7202C15.3788 16.9172 15.1763 18.2543 15.1763 19.7255V20.1749H18.2159V19.7255C18.2159 18.2133 18.4734 16.9687 18.9663 15.9725C19.4656 14.9636 20.1286 14.2163 20.9522 13.7114C21.7837 13.2016 22.7087 12.9445 23.737 12.9445C24.3723 12.9445 24.9469 13.0279 25.4639 13.19C25.9835 13.3529 26.4412 13.587 26.8406 13.8902L26.8429 13.8919C27.2507 14.1971 27.6006 14.5665 27.8938 15.0019L27.8975 15.0072C28.1977 15.4395 28.4422 15.9322 28.6292 16.4883Z" fill="#F0B90B"/>
</g>
</g>
</g>
</g>
</svg>
