<svg width="40" height="41" viewBox="0 0 40 41" fill="none" xmlns="http://www.w3.org/2000/svg">
<g id="Group 23">
<g id="Group 13227">
<g id="Group 13226">
<path id="Vector" d="M20 40.4443C31.0834 40.4443 40 31.5277 40 20.4443C40 9.36094 31.0834 0.444336 20 0.444336C8.9166 0.444336 0 9.36094 0 20.4443C0 31.5277 8.9166 40.4443 20 40.4443Z" fill="#2563EB"/>
<path id="Vector_2" d="M25.4964 23.6096C25.4964 20.693 23.7464 19.693 20.2464 19.2764C17.7464 18.943 17.2464 18.2764 17.2464 17.1096C17.2464 15.9428 18.0798 15.193 19.7464 15.193C21.2464 15.193 22.0798 15.693 22.4964 16.943C22.5798 17.193 22.8298 17.3596 23.0798 17.3596H24.413C24.7464 17.3596 24.9964 17.1096 24.9964 16.7764V16.693C24.663 14.8596 23.163 13.443 21.2464 13.2764V11.2764C21.2464 10.943 20.9964 10.693 20.5798 10.6096H19.3298C18.9964 10.6096 18.7464 10.8596 18.663 11.2764V13.193C16.163 13.5264 14.5798 15.193 14.5798 17.2764C14.5798 20.0264 16.2464 21.1096 19.7464 21.5264C22.0798 21.943 22.8298 22.443 22.8298 23.7764C22.8298 25.1098 21.663 26.0264 20.0798 26.0264C17.913 26.0264 17.163 25.1096 16.913 23.8596C16.8298 23.5264 16.5798 23.3596 16.3298 23.3596H14.913C14.5798 23.3596 14.3298 23.6096 14.3298 23.943V24.0264C14.663 26.1096 15.9964 27.6096 18.7464 28.0264V30.0264C18.7464 30.3596 18.9964 30.6096 19.413 30.693H20.663C20.9964 30.693 21.2464 30.443 21.3298 30.0264V28.0264C23.8298 27.6096 25.4964 25.8596 25.4964 23.6096Z" fill="white"/>
<path id="Vector_3" d="M15.7546 32.3598C9.25455 30.0266 5.92116 22.7766 8.33796 16.3598C9.58796 12.8598 12.338 10.1932 15.7546 8.94321C16.088 8.77661 16.2546 8.52661 16.2546 8.10981V6.94321C16.2546 6.60981 16.088 6.35981 15.7546 6.27661C15.6712 6.27661 15.5046 6.27661 15.4212 6.35981C7.50456 8.85981 3.17115 17.2766 5.67115 25.1932C7.17115 29.8598 10.7546 33.4432 15.4212 34.9432C15.7546 35.1098 16.088 34.9432 16.1712 34.6098C16.2546 34.5266 16.2546 34.4432 16.2546 34.2766V33.1098C16.2546 32.8598 16.0046 32.5266 15.7546 32.3598ZM24.588 6.35981C24.2546 6.19321 23.9212 6.35981 23.838 6.69321C23.7546 6.77661 23.7546 6.85981 23.7546 7.02661V8.19321C23.7546 8.52661 24.0046 8.85981 24.2546 9.02661C30.7546 11.3598 34.088 18.6098 31.6712 25.0266C30.4212 28.5266 27.6712 31.1932 24.2546 32.4432C23.9212 32.6098 23.7546 32.8598 23.7546 33.2766V34.4432C23.7546 34.7766 23.9212 35.0266 24.2546 35.1098C24.338 35.1098 24.5046 35.1098 24.588 35.0266C32.5046 32.5266 36.838 24.1098 34.338 16.1932C32.838 11.4432 29.1712 7.85981 24.588 6.35981Z" fill="white"/>
</g>
</g>
</g>
</svg>
