<svg width="36" height="36" viewBox="0 0 36 36" fill="none" xmlns="http://www.w3.org/2000/svg">
<g id="Main navigation/default/Dashboard-selected">
<path id="Rectangle 2" d="M11 15.5L17.5 10L24 15.5V26H11V15.5Z" fill="#2563EB"/>
<path id="Vector" d="M15.1801 26.2542H19.8135V19.8712C19.8135 19.495 19.5866 19.2531 19.2335 19.2531H15.7664C15.4134 19.2531 15.1801 19.495 15.1801 19.8712V26.2542ZM11.9967 27H22.9718C24.0813 27 24.7117 26.3348 24.7117 25.1725V15.6114L23.5959 14.7917V24.8835C23.5959 25.495 23.3059 25.8108 22.7323 25.8108H12.2299C11.6626 25.8108 11.3726 25.495 11.3726 24.8835V14.7984L10.2568 15.6114V25.1725C10.2568 26.3416 10.8872 27 11.9967 27ZM8 17.3651C8 17.6674 8.22064 17.9496 8.59887 17.9496C8.78799 17.9496 8.94558 17.8421 9.08427 17.7144L17.2037 10.458C17.3928 10.2766 17.8215 10.458 17.8215 10.458C18.0295 10.6529 25.922 17.7144 25.922 17.7144C26.067 17.8421 26.2183 17.9496 26.4137 17.9496C26.7415 17.9496 27 17.7346 27 17.3852C27 17.1635 26.9307 17.0089 26.7794 16.8746L18.4266 9.38298C17.8593 8.87234 17.1722 8.87234 16.5985 9.38298L8.22694 16.8746C8.06934 17.0089 8 17.1904 8 17.3651ZM22.8583 13.7436L24.7117 15.4166V11.4188C24.7117 11.0829 24.5036 10.8679 24.1884 10.8679H23.3879C23.0727 10.8679 22.8583 11.0829 22.8583 11.4188V13.7436Z" fill="#2563EB"/>
<rect id="Rectangle 1" x="15" y="19" width="5" height="7" rx="1" fill="#DBEAFE"/>
</g>
</svg>
