<svg width="36" height="36" viewBox="0 0 36 36" fill="none" xmlns="http://www.w3.org/2000/svg">
<g id="Main navigation/default/Earn">
<g id="Group 162720">
<g id="Group 162721">
<path id="Fill 1 (Stroke)" fillRule="evenodd" clipRule="evenodd" d="M9.54617 9.64375C10.5671 8.54807 12.0161 8 13.7429 8H22.2326C23.959 8 25.4078 8.5481 26.4286 9.64378C27.4538 10.7441 27.9746 12.3188 27.9746 14.2022V14.9075H23.4062C21.8477 14.9109 20.6392 16.2604 20.6365 17.8525C20.6347 19.4483 21.8446 20.8035 23.4066 20.8058H27.978V21.7897C27.978 23.673 27.4572 25.2494 26.4324 26.3517C25.4117 27.4495 23.963 28 22.2359 28H13.7429C12.0155 28 10.5665 27.4495 9.54572 26.3517C8.52081 25.2494 8 23.673 8 21.7897V14.2022C8 12.3188 8.52087 10.7441 9.54617 9.64375ZM10.3537 10.6124C9.61158 11.4089 9.17517 12.602 9.17517 14.2022V21.7897C9.17517 23.39 9.61163 24.5854 10.3542 25.384C11.1009 26.1871 12.2296 26.6667 13.7429 26.6667H22.2359C23.7488 26.6667 24.8772 26.1872 25.6239 25.3841C26.3113 24.6447 26.7364 23.5651 26.7956 22.1391H23.4059C21.2542 22.136 19.4583 20.2485 19.4613 17.8503C19.4654 15.4575 21.2583 13.5784 23.4049 13.5742L26.7757 13.5742C26.6756 12.286 26.2625 11.301 25.621 10.6124C24.8745 9.81119 23.746 9.33333 22.2326 9.33333H13.7429C12.229 9.33333 11.1003 9.81121 10.3537 10.6124ZM18.4565 13.3954C18.4337 13.3711 18.3977 13.3515 18.3514 13.3517L18.3491 13.3517H13.0449C12.9996 13.3521 12.9645 13.3716 12.9424 13.3955C12.9206 13.4189 12.9148 13.4413 12.9147 13.4591M18.4565 13.3954C18.4788 13.4191 18.4843 13.4414 18.4843 13.4582L18.4565 13.3954ZM18.3481 12.0183C19.0382 12.016 19.6563 12.624 19.6595 13.4523C19.6627 14.2813 19.0499 14.8962 18.3581 14.8994L18.3557 14.8994H13.041C12.3497 14.8962 11.7363 14.2818 11.7396 13.4532C11.7428 12.6298 12.3531 12.0215 13.041 12.0183L13.0433 12.0183L18.3481 12.0183ZM18.4843 13.4582C18.4844 13.4762 18.4787 13.4986 18.4572 13.5219L18.4843 13.4582ZM18.4572 13.5219C18.4352 13.5458 18.4001 13.5656 18.3542 13.566L18.4572 13.5219ZM18.3542 13.566H13.0449C12.999 13.5656 12.9637 13.5458 12.9417 13.5219C12.9201 13.4984 12.9147 13.4763 12.9147 13.4591" fill="#475568"/>
<path id="Subtract" fillRule="evenodd" clipRule="evenodd" d="M24.2703 19.7241C23.3752 19.7398 22.5911 19.1326 22.3945 18.2695C22.3714 18.1542 22.3594 18.0365 22.3594 17.9189C22.3578 16.9136 23.1802 16.0979 24.1984 16.0947H27.3257C27.6981 16.0955 27.9994 16.394 28.0002 16.7612V19.0584C28.0002 19.4263 27.6981 19.7241 27.3257 19.7241H24.2703ZM24.2395 18.8169C24.7587 18.8169 25.1796 18.4107 25.1796 17.9095C25.1796 17.4084 24.7587 17.0021 24.2395 17.0021C23.7202 17.0021 23.2993 17.4084 23.2993 17.9095C23.2993 18.4107 23.7202 18.8169 24.2395 18.8169Z" fill="#475568"/>
</g>
</g>
</g>
</svg>
