<svg width="24" height="24" viewBox="0 0 24 24" fill="none" xmlns="http://www.w3.org/2000/svg">
<path id="Vector" d="M12 24C5.37258 24 0 18.6274 0 12C0 5.37258 5.37258 0 12 0C18.6274 0 24 5.37258 24 12C24 18.6274 18.6274 24 12 24ZM8.26817 13.405L8.28335 13.3954C8.97903 15.692 9.32686 16.8404 9.32686 16.8404C9.46158 17.213 9.64682 17.2795 9.87158 17.2492C10.0962 17.2187 10.2155 17.0971 10.3621 16.9556C10.3621 16.9556 10.8377 16.4966 11.7888 15.5788L14.8499 17.8438C15.4076 18.1519 15.8104 17.9929 15.9488 17.3252L17.9382 7.93969C18.1578 7.0661 17.7726 6.71573 17.0952 6.99305L5.41558 11.5045C4.61877 11.8248 4.62262 12.2706 5.27052 12.4693L8.26817 13.405Z" fill="black"/>
</svg>
